<?xml version="1.0" standalone="no"?>
<!DOCTYPE svg PUBLIC "-//W3C//DTD SVG 20010904//EN"
 "http://www.w3.org/TR/2001/REC-SVG-20010904/DTD/svg10.dtd">
<svg version="1.0" xmlns="http://www.w3.org/2000/svg"
 width="256.000000pt" height="256.000000pt" viewBox="0 0 256.000000 256.000000"
 preserveAspectRatio="xMidYMid meet">

<g transform="translate(0.000000,256.000000) scale(0.100000,-0.100000)"
fill="#000000" stroke="none">
<path d="M296 2358 c-12 -16 -16 -47 -16 -110 l0 -88 -118 0 c-169 0 -162 7
-162 -184 0 -113 3 -156 13 -164 7 -6 40 -12 72 -14 l60 -3 3 -627 2 -628 -58
0 c-89 0 -92 -6 -92 -179 0 -79 5 -151 10 -162 11 -19 35 -19 1270 -19 1235 0
1259 0 1270 19 5 11 10 84 10 164 0 171 -3 177 -93 177 l-57 0 2 628 3 627 60
3 c32 2 65 8 72 14 10 8 13 51 13 164 0 191 7 184 -162 184 l-118 0 0 88 c0
141 21 132 -304 132 -198 0 -275 -3 -284 -12 -8 -8 -12 -47 -12 -110 l0 -98
-94 0 c-102 0 -126 -10 -126 -54 0 -46 -4 -46 512 -46 l488 0 0 -80 0 -80
-1180 0 -1180 0 0 80 0 80 488 0 c516 0 512 0 512 46 0 44 -24 54 -126 54
l-94 0 0 98 c0 63 -4 102 -12 110 -9 9 -86 12 -284 12 -271 0 -273 0 -288 -22z
m484 -138 l0 -60 -200 0 -200 0 0 60 0 60 200 0 200 0 0 -60z m1400 0 l0 -60
-200 0 -200 0 0 60 0 60 200 0 200 0 0 -60z m130 -1050 l0 -630 -1030 0 -1030
0 0 630 0 630 1030 0 1030 0 0 -630z m150 -810 l0 -80 -1180 0 -1180 0 0 80 0
80 1180 0 1180 0 0 -80z"/>
<path d="M1288 1673 c-32 -38 -338 -570 -338 -589 0 -43 14 -49 130 -52 l110
-4 0 -177 c0 -165 1 -179 20 -196 16 -14 25 -16 43 -8 27 13 357 572 357 606
0 41 -17 47 -132 47 l-108 0 0 183 c0 129 -4 187 -12 195 -17 17 -53 15 -70
-5z m1 -457 c10 -12 32 -16 98 -16 64 0 84 -3 80 -12 -2 -7 -43 -78 -90 -157
l-85 -144 -4 112 c-2 86 -6 114 -18 121 -8 5 -52 10 -97 10 -46 0 -83 3 -83 7
0 4 39 74 88 157 l87 150 5 -105 c3 -69 10 -112 19 -123z"/>
<path d="M1948 1309 c-12 -7 -18 -22 -18 -49 0 -39 -1 -40 -35 -40 -32 0 -75
-27 -75 -48 0 -24 34 -51 68 -54 35 -3 37 -5 40 -40 3 -34 30 -68 54 -68 21 0
48 43 48 74 0 34 1 35 42 38 37 3 44 7 53 32 8 24 6 31 -14 47 -13 10 -36 19
-52 19 -25 0 -29 4 -29 28 0 56 -40 86 -82 61z"/>
<path d="M449 1201 c-20 -16 -22 -23 -14 -47 l10 -29 130 -3 c123 -3 131 -2
148 19 22 27 21 35 -3 59 -18 18 -33 20 -134 20 -97 0 -117 -3 -137 -19z"/>
<path d="M1249 2141 c-20 -16 -22 -23 -14 -47 18 -52 95 -42 95 12 0 20 -32
54 -51 54 -4 0 -17 -9 -30 -19z"/>
</g>
</svg>
