<?xml version="1.0" standalone="no"?>
<!DOCTYPE svg PUBLIC "-//W3C//DTD SVG 20010904//EN"
 "http://www.w3.org/TR/2001/REC-SVG-20010904/DTD/svg10.dtd">
<svg version="1.0" xmlns="http://www.w3.org/2000/svg"
 width="256.000000pt" height="256.000000pt" viewBox="0 0 256.000000 256.000000"
 preserveAspectRatio="xMidYMid meet">

<g transform="translate(0.000000,256.000000) scale(0.100000,-0.100000)"
fill="#000000" stroke="none">
<path d="M204 2550 c-12 -4 -31 -21 -43 -36 -20 -26 -21 -37 -21 -260 l0 -232
-30 -7 c-40 -9 -80 -42 -96 -81 -20 -48 -20 -287 1 -304 19 -16 52 -4 59 23 3
12 6 74 6 138 0 99 3 118 18 132 17 15 60 17 415 17 384 0 398 -1 417 -20 19
-19 20 -33 20 -288 0 -209 -3 -280 -15 -319 -19 -65 -85 -139 -150 -169 -48
-23 -60 -24 -265 -24 -118 0 -232 5 -252 10 -53 15 -117 67 -152 124 -26 42
-31 61 -36 144 -3 54 -9 103 -13 110 -10 15 -39 16 -55 0 -15 -15 -16 -130 -1
-198 24 -112 134 -224 249 -253 l55 -14 5 -58 c5 -51 10 -61 42 -89 l36 -31 4
-240 c6 -264 14 -305 78 -404 108 -169 324 -255 515 -206 178 47 321 197 355
374 6 34 10 366 10 901 l0 847 30 60 c48 96 127 143 239 143 98 -1 186 -57
227 -145 l24 -50 0 -642 0 -643 -45 0 c-62 0 -110 -22 -129 -59 -24 -46 -23
-456 1 -491 9 -14 23 -29 30 -33 9 -6 13 -33 13 -88 0 -96 17 -141 62 -169 29
-18 50 -20 181 -20 213 0 237 18 237 171 0 76 2 84 30 115 33 38 43 76 38 148
-2 36 -8 52 -24 63 -35 23 -54 -5 -54 -80 0 -34 -4 -68 -8 -75 -7 -9 -58 -12
-223 -10 l-214 3 0 220 0 220 220 0 220 0 5 -74 c5 -81 23 -107 58 -85 21 14
29 102 13 155 -18 59 -52 82 -126 87 l-65 4 0 642 c0 706 0 706 -62 814 -127
223 -407 304 -640 186 -65 -33 -164 -132 -201 -201 -56 -105 -57 -113 -57
-1029 0 -939 3 -898 -70 -973 -51 -53 -91 -72 -161 -78 -79 -8 -140 11 -195
60 -85 74 -89 89 -92 351 l-3 229 32 25 c37 29 59 77 59 127 0 32 3 35 28 35
46 0 147 57 191 106 21 25 50 66 63 92 23 46 23 51 23 369 l0 322 -29 30 c-17
17 -45 36 -63 43 l-33 12 0 218 c0 243 -6 275 -59 302 -39 21 -76 20 -112 -1
-54 -32 -59 -59 -59 -302 l0 -221 -150 0 -150 0 0 225 c0 249 -4 271 -60 300
-32 17 -64 18 -96 5z m74 -82 c9 -9 12 -74 12 -230 l0 -218 -40 0 -40 0 0 214
c0 118 3 221 6 230 7 19 45 21 62 4z m530 -220 l2 -228 -35 0 -35 0 0 223 c0
123 3 227 7 231 4 4 19 6 33 4 l25 -3 3 -227z m987 197 c115 -56 201 -168 225
-295 6 -32 10 -298 10 -671 l0 -619 -35 0 -34 0 -3 653 -3 652 -26 55 c-33 70
-95 132 -167 167 -121 59 -290 26 -383 -74 -22 -25 -53 -70 -67 -101 l-27 -57
-5 -890 -5 -890 -32 -68 c-39 -82 -108 -153 -189 -193 -54 -26 -68 -29 -169
-29 -103 0 -114 2 -175 31 -82 39 -152 110 -193 194 l-32 65 -3 242 -4 243 36
0 36 0 0 -225 c0 -257 8 -296 81 -379 121 -138 337 -149 473 -26 35 33 63 70
82 112 l29 63 5 890 5 890 31 65 c34 73 106 150 167 182 84 42 110 48 212 45
88 -2 108 -6 160 -32z m-1165 -1445 c0 -52 -17 -60 -121 -60 -96 0 -119 13
-119 67 l0 33 120 0 120 0 0 -40z m1530 -823 c0 -75 -9 -97 -42 -97 -14 0 -18
8 -18 39 0 42 -18 65 -47 59 -14 -2 -19 -15 -23 -53 -5 -46 -7 -50 -32 -53
-26 -3 -28 -1 -28 33 0 45 -15 75 -38 75 -29 0 -42 -21 -42 -67 0 -47 -5 -51
-38 -27 -19 13 -22 24 -22 90 l0 74 165 0 165 0 0 -73z"/>
<path d="M484 1668 c-50 -51 -94 -101 -98 -111 -4 -12 3 -27 19 -43 19 -19 34
-24 77 -24 l52 0 -68 -69 c-72 -73 -82 -103 -36 -109 21 -2 43 15 118 91 56
58 92 102 92 115 0 31 -38 52 -94 52 l-49 0 66 69 c68 70 77 87 55 109 -23 23
-45 11 -134 -80z"/>
</g>
</svg>
