<?xml version="1.0" standalone="no"?>
<!DOCTYPE svg PUBLIC "-//W3C//DTD SVG 20010904//EN"
 "http://www.w3.org/TR/2001/REC-SVG-20010904/DTD/svg10.dtd">
<svg version="1.0" xmlns="http://www.w3.org/2000/svg"
 width="256.000000pt" height="256.000000pt" viewBox="0 0 256.000000 256.000000"
 preserveAspectRatio="xMidYMid meet">

<g transform="translate(0.000000,256.000000) scale(0.100000,-0.100000)"
fill="#000000" stroke="none">
<path d="M2030 2545 c-233 -57 -374 -307 -299 -527 45 -131 160 -334 301 -529
43 -60 48 -72 48 -121 0 -65 23 -95 65 -84 30 8 45 40 45 101 0 35 8 54 43
101 170 232 306 490 322 611 21 156 -81 341 -229 413 -100 49 -193 60 -296 35z
m245 -127 c60 -31 114 -86 146 -148 33 -62 33 -181 1 -260 -29 -74 -106 -208
-205 -358 l-81 -123 -21 27 c-51 68 -199 307 -235 380 -57 116 -72 181 -59
252 17 89 55 150 130 205 61 45 105 57 194 54 62 -3 91 -9 130 -29z"/>
<path d="M2094 2230 c-35 -14 -64 -59 -64 -101 0 -29 7 -45 31 -68 81 -82 218
15 165 118 -26 49 -82 71 -132 51z"/>
<path d="M552 1699 c-145 -19 -264 -79 -368 -184 -165 -167 -221 -402 -154
-645 61 -220 259 -527 511 -793 l74 -77 62 0 c34 0 73 4 86 9 34 13 43 46 22
77 -16 25 -16 26 27 72 141 151 272 341 359 517 70 144 98 240 106 360 24 400
-324 718 -725 664z m262 -128 c86 -30 141 -65 207 -132 66 -68 121 -169 140
-256 17 -85 6 -232 -24 -320 -70 -200 -230 -445 -443 -676 l-54 -58 -54 58
c-213 231 -373 476 -443 676 -30 87 -41 236 -24 317 42 203 207 365 416 410
64 14 213 4 279 -19z"/>
<path d="M581 1379 c-223 -45 -329 -295 -205 -486 59 -92 154 -143 264 -143
230 0 383 237 290 447 -57 130 -211 210 -349 182z m122 -110 c52 -14 112 -71
133 -124 24 -65 16 -144 -22 -198 -113 -160 -366 -96 -382 98 -13 155 121 266
271 224z"/>
<path d="M2033 1134 c-38 -35 -69 -50 -123 -59 -25 -4 -53 -14 -62 -23 -25
-21 -22 -59 5 -77 52 -34 213 25 262 95 26 38 27 41 11 65 -21 33 -57 32 -93
-1z"/>
<path d="M1598 997 c-45 -34 -124 -141 -134 -183 -8 -30 19 -64 51 -64 25 0
41 17 78 82 15 26 47 63 72 84 49 40 57 70 27 97 -27 24 -45 21 -94 -16z"/>
<path d="M1392 628 c-5 -7 -21 -40 -35 -73 -14 -33 -37 -80 -51 -105 -43 -75
-30 -125 31 -118 25 3 34 16 86 118 31 63 57 125 57 137 0 43 -62 72 -88 41z"/>
<path d="M1140 243 c-13 -10 -65 -38 -115 -63 -78 -39 -90 -49 -93 -73 -8 -67
41 -73 154 -19 131 64 172 113 128 156 -20 21 -44 20 -74 -1z"/>
</g>
</svg>
